# xmcd
#
# Track frame offsets: 
#        150
#        13760
#        26860
#        40585
#        54777
#        68482
#        83702
#        101000
#        119607
#        133992
#        148685
#        163417
#        179092
#        190000
#        204462
#        218932
#        231900
#        244282
#        256215
#        271795
#        286362
#        298940
#        313337
#
# Disc length: 4349 seconds
#
# Revision: 0
# Processed by: cddbd v1.5.2PL0 Copyright (c) Steve Scherf et al.
# Submitted via: ExactAudioCopy v1.0b2
#
DISCID=6810fb17
DTITLE=Stefanie Hertel - So a Stückerl heile Welt
DYEAR=2000
DGENRE=Volksmusik
TTITLE0=So a Stückerl heile Welt
TTITLE1=Über jedes Bacherl geht a Brückerl
TTITLE2=Ferien auf dem Bauernhof
TTITLE3=Stefanie Hertel mit Marianne und Michael - Jeder braucht sein 
TTITLE3=Kuscheltier
TTITLE4=Achmed (Wo die Sonne scheint)
TTITLE5=Der kleine Prinz vom andern Stern
TTITLE6=Stefanie Hertel mit Eberhard Hertel - Hab mich lieb
TTITLE7=Mama Veronika
TTITLE8=Lass die weißen Tauben fliegen
TTITLE9=Papa, die Oma hat erzählt
TTITLE10=Als noch das Sandmännchen kam
TTITLE11=Kinder brauchen gar nicht viel
TTITLE12=Die liebe Familie
TTITLE13=Stefanie Hertel mit dem Schlawiner Kinderchor - Max, das klei
TTITLE13=ne Murmeltier
TTITLE14=Mit einem Rucksack voller Lieder
TTITLE15=Mehr Zeit für uns beide
TTITLE16=Heut' möcht ich am liebsten ein Schmetterling sein
TTITLE17=Es war einmal ein Schwalbenkind
TTITLE18=Ein Zuhause gesucht
TTITLE19=Kleiner Clown
TTITLE20=Für Opa ist immer ein Zimmer frei
TTITLE21=Stefanie Hertel mit Eberhard Hertel - In seiner Hütte ist er 
TTITLE21=König
TTITLE22=Stefanie Hertel mit Marianne - Was macht der Elefant in unser
TTITLE22=em Gartenhaus
EXTD=
EXTT0=
EXTT1=
EXTT2=
EXTT3=
EXTT4=
EXTT5=
EXTT6=
EXTT7=
EXTT8=
EXTT9=
EXTT10=
EXTT11=
EXTT12=
EXTT13=
EXTT14=
EXTT15=
EXTT16=
EXTT17=
EXTT18=
EXTT19=
EXTT20=
EXTT21=
EXTT22=
PLAYORDER=
